<svg width="511" height="211" viewBox="0 0 511 211" fill="none" xmlns="http://www.w3.org/2000/svg">
<path d="M248.544 68.32C256.907 68.32 263.691 70.9227 268.896 76.128C274.272 81.3333 276.96 88.5867 276.96 97.888V140H258.912V101.216C258.912 96.0107 257.632 92 255.072 89.184C252.597 86.368 249.227 84.96 244.96 84.96C240.352 84.96 236.64 86.496 233.824 89.568C231.008 92.5547 229.6 96.608 229.6 101.728V140H211.552V101.344C211.552 96.224 210.272 92.2133 207.712 89.312C205.237 86.4107 201.824 84.96 197.472 84.96C193.035 84.96 189.365 86.496 186.464 89.568C183.648 92.64 182.24 96.736 182.24 101.856V140H164.192V70.24H181.856V80.224C183.819 76.5547 186.72 73.6533 190.56 71.52C194.4 69.3013 198.581 68.2347 203.104 68.32C207.541 68.32 211.595 69.3867 215.264 71.52C219.019 73.6533 221.792 76.6827 223.584 80.608C226.144 76.768 229.643 73.7813 234.08 71.648C238.517 69.4293 243.339 68.32 248.544 68.32ZM336.602 78.56V70.24H353.754V140H336.602V131.936C330.629 138.421 323.205 141.664 314.33 141.664C304.261 141.664 295.983 138.165 289.498 131.168C283.013 124.171 279.77 115.381 279.77 104.8C279.77 94.304 283.055 85.6427 289.626 78.816C296.197 71.904 304.431 68.448 314.33 68.448C323.034 68.448 330.458 71.8187 336.602 78.56ZM336.858 105.056C336.858 99.5947 334.981 94.8587 331.226 90.848C327.557 86.9227 322.906 84.96 317.274 84.96C311.557 84.96 306.863 86.9227 303.194 90.848C299.61 94.7733 297.818 99.5093 297.818 105.056C297.818 110.688 299.653 115.467 303.322 119.392C306.991 123.317 311.642 125.28 317.274 125.28C322.906 125.28 327.557 123.317 331.226 119.392C334.981 115.381 336.858 110.603 336.858 105.056ZM414.398 77.92V70.24H431.038V133.088C431.038 144.352 427.454 153.227 420.286 159.712C413.033 166.283 403.731 169.568 392.382 169.568C380.35 169.568 369.683 166.197 360.382 159.456L367.422 145.888C375.443 151.349 383.593 154.08 391.87 154.08C398.611 154.08 403.902 152.288 407.742 148.704C411.667 145.12 413.63 140.469 413.63 134.752V131.168C408.254 137.141 401.086 140.128 392.126 140.128C381.886 140.128 373.523 136.757 367.038 130.016C360.553 123.275 357.31 114.741 357.31 104.416C357.31 94.0907 360.723 85.5147 367.55 78.688C374.377 71.8613 382.825 68.448 392.894 68.448C401.427 68.448 408.595 71.6053 414.398 77.92ZM375.486 104.544C375.486 110.347 377.321 115.083 380.99 118.752C384.745 122.507 389.353 124.384 394.814 124.384C400.275 124.384 404.883 122.507 408.638 118.752C412.307 114.997 414.142 110.261 414.142 104.544C414.142 98.912 412.307 94.2613 408.638 90.592C404.883 86.8373 400.275 84.96 394.814 84.96C389.353 84.96 384.745 86.8373 380.99 90.592C377.321 94.2613 375.486 98.912 375.486 104.544ZM506.149 103.52C506.149 105.653 505.936 108.299 505.509 111.456H453.157C455.717 121.355 462.501 126.304 473.509 126.304C481.616 126.304 489.125 123.957 496.037 119.264L503.205 131.936C494.33 138.336 484.176 141.536 472.741 141.536C460.538 141.536 451.152 137.995 444.581 130.912C438.096 123.915 434.853 115.296 434.853 105.056C434.853 94.3893 438.224 85.6427 444.965 78.816C451.706 71.904 460.453 68.448 471.205 68.448C481.36 68.448 489.722 71.6053 496.293 77.92C502.864 84.2347 506.149 92.768 506.149 103.52ZM471.205 83.424C466.682 83.424 462.8 84.7467 459.557 87.392C456.4 89.952 454.266 93.4933 453.157 98.016H488.613C487.76 93.4933 485.797 89.952 482.725 87.392C479.653 84.7467 475.813 83.424 471.205 83.424Z" fill="white"/>
<mask id="mask0_6_239" style="mask-type:luminance" maskUnits="userSpaceOnUse" x="0" y="67" width="69" height="72">
<path d="M0 67H68.0585V138.863H0V67Z" fill="white"/>
</mask>
<g mask="url(#mask0_6_239)">
<mask id="mask1_6_239" style="mask-type:luminance" maskUnits="userSpaceOnUse" x="0" y="67" width="69" height="72">
<path d="M68.0584 108.311L49.7294 138.79H0.117188L43.2614 67.073L68.0584 108.311Z" fill="white"/>
</mask>
<g mask="url(#mask1_6_239)">
<path d="M170.78 0.209961H-34.6636V205.653H170.78V0.209961Z" fill="white"/>
</g>
</g>
<mask id="mask2_6_239" style="mask-type:luminance" maskUnits="userSpaceOnUse" x="68" y="67" width="69" height="72">
<path d="M68.0586 67H136.117V138.863H68.0586V67Z" fill="white"/>
</mask>
<g mask="url(#mask2_6_239)">
<mask id="mask3_6_239" style="mask-type:luminance" maskUnits="userSpaceOnUse" x="68" y="67" width="68" height="72">
<path d="M136 138.79H86.3868L68.0586 108.311L92.8556 67.073L136 138.79Z" fill="white"/>
</mask>
<g mask="url(#mask3_6_239)">
<path d="M170.78 0.209961H-34.6631V205.653H170.78V0.209961Z" fill="white"/>
</g>
</g>
</svg>
